<svg xmlns="http://www.w3.org/2000/svg" width="320" height="374" viewBox="0 0 320 374"><rect width="320" height="374" fill="#e9d3d9"/><path d="M30 374C30 300 90 266 160 266S290 300 290 374Z" fill="#2f7a3d"/><rect x="140" y="226" width="40" height="52" rx="16" fill="#f0c9a8"/><circle cx="160" cy="84" r="30" fill="#3b2a24"/><ellipse cx="160" cy="184" rx="56" ry="66" fill="#f0c9a8"/><path d="M104 178C104 118 130 108 160 108S216 118 216 178C200 146 180 138 160 138S120 146 104 178Z" fill="#3b2a24"/><circle cx="140" cy="190" r="4.5" fill="#2a2a2a"/><circle cx="180" cy="190" r="4.5" fill="#2a2a2a"/><path d="M144 216Q160 230 176 216" stroke="#8a4b3c" stroke-width="4" fill="none" stroke-linecap="round"/></svg>
